<svg width="2118" height="432" viewBox="0 0 2118 432" fill="none" xmlns="http://www.w3.org/2000/svg">
  <mask id="mask0_5980_5215" style="mask-type:luminance" maskUnits="userSpaceOnUse" x="0" y="0" width="2116" height="430">
  <path d="M2115.07 0H0V429.268H2115.07V0Z" fill="white"/>
  </mask>
  <g mask="url(#mask0_5980_5215)">
  <mask id="mask1_5980_5215" style="mask-type:luminance" maskUnits="userSpaceOnUse" x="0" y="0" width="2116" height="430">
  <path d="M2115.07 0H0V429.268H2115.07V0Z" fill="white"/>
  </mask>
  <g mask="url(#mask1_5980_5215)">
  <path d="M717.199 76.9194V349.343H678.336V224.787H585.112V349.343H546.32V76.9194H585.112V185.874H678.3V76.9194H717.199Z" fill="#1B1925"/>
  <path d="M950.155 259.826V349.343H911.328V286.286H818.148V349.343H779.32V259.826L845.162 76.9194H884.169L950.155 259.826ZM825.117 247.373H904.358L865.135 138.418H864.34L825.117 247.373Z" fill="#1B1925"/>
  <path d="M1119.08 213.131L1183.15 349.343H1140.43L1097.74 258.667L1055.01 349.343H1012.28L1076.32 213.131L1012.28 76.9194H1055.01L1097.74 167.413L1140.43 76.9194H1183.15L1119.08 213.131Z" fill="#1B1925"/>
  <path d="M1416.16 259.826V349.343H1377.29V286.286H1284.1V349.343H1245.28V259.826L1311.3 76.9194H1350.13L1416.16 259.826ZM1291.11 247.373H1370.32L1331.1 138.418H1330.3L1291.11 247.373Z" fill="#1B1925"/>
  <path d="M1610.28 168.391V146.962C1610.34 142.86 1609.58 138.788 1608.03 134.986C1606.49 131.186 1604.2 127.732 1601.31 124.831C1598.41 121.93 1594.97 119.638 1591.17 118.093C1587.38 116.548 1583.32 115.779 1579.22 115.832H1548.17C1544.08 115.813 1540.03 116.606 1536.25 118.163C1532.47 119.721 1529.04 122.013 1526.16 124.908C1523.27 127.802 1520.99 131.242 1519.43 135.028C1517.88 138.813 1517.09 142.87 1517.1 146.962V278.903C1517.13 287.15 1520.41 295.052 1526.23 300.883C1532.05 306.716 1539.94 310.004 1548.17 310.033H1579.22C1587.45 310.004 1595.34 306.716 1601.16 300.883C1606.97 295.052 1610.26 287.15 1610.28 278.903V241.546H1552.03V202.707H1649.11V278.903C1649.14 297.525 1641.81 315.398 1628.7 328.603C1615.59 341.808 1597.81 349.267 1579.22 349.343H1548.17C1529.6 349.2 1511.85 341.72 1498.77 328.529C1485.67 315.338 1478.32 297.504 1478.28 278.903V146.962C1478.26 137.761 1480.07 128.649 1483.57 120.147C1487.08 111.645 1492.23 103.92 1498.73 97.414C1505.22 90.908 1512.92 85.7488 1521.4 82.2324C1529.89 78.7156 1538.99 76.9104 1548.17 76.92H1579.22C1588.41 76.882 1597.51 78.6672 1606.01 82.1736C1614.51 85.68 1622.23 90.838 1628.73 97.3496C1635.23 103.861 1640.37 111.598 1643.87 120.113C1647.37 128.628 1649.15 137.753 1649.11 146.962V168.391H1610.28Z" fill="#1B1925"/>
  <path d="M1781.12 349.343C1762.57 349.2 1744.81 341.72 1731.72 328.529C1718.64 315.338 1711.27 297.504 1711.24 278.903V146.962C1711.23 137.763 1713.04 128.653 1716.55 120.153C1720.06 111.653 1725.21 103.93 1731.69 97.4244C1738.19 90.9192 1745.9 85.7604 1754.37 82.242C1762.85 78.7236 1771.95 76.9152 1781.12 76.92H1812.23C1821.4 76.882 1830.52 78.6672 1839.02 82.1736C1847.51 85.68 1855.23 90.838 1861.73 97.3496C1868.22 103.861 1873.37 111.598 1876.86 120.113C1880.37 128.628 1882.14 137.753 1882.11 146.962V278.903C1882.14 297.525 1874.8 315.398 1861.69 328.603C1848.6 341.808 1830.8 349.267 1812.23 349.343H1781.12ZM1843.28 278.903V146.962C1843.33 142.86 1842.57 138.788 1841.03 134.986C1839.48 131.186 1837.21 127.732 1834.31 124.831C1831.42 121.93 1827.96 119.638 1824.17 118.093C1820.37 116.548 1816.31 115.779 1812.23 115.832H1781.12C1777.05 115.813 1773 116.606 1769.22 118.163C1765.44 119.721 1762.01 122.013 1759.12 124.908C1756.23 127.802 1753.94 131.242 1752.39 135.028C1750.83 138.813 1750.04 142.87 1750.07 146.962V278.903C1750.1 287.15 1753.38 295.052 1759.2 300.883C1765.01 306.716 1772.89 310.004 1781.12 310.033H1812.23C1820.45 310.004 1828.33 306.716 1834.15 300.883C1839.97 295.052 1843.25 287.15 1843.28 278.903Z" fill="#1B1925"/>
  <path d="M2115.07 76.9194V349.343H2058.73L1982.89 142.293V349.343H1944.24V76.9194H2000.54L2076.39 283.969V76.9194H2115.07Z" fill="#1B1925"/>
  <path d="M309.099 286.178L370.933 321.941L185.466 429.268L0 321.941V107.326L185.466 0V71.5628L61.834 143.09V286.178L185.466 357.705L309.099 286.178Z" fill="#A069FF"/>
  <path d="M340.015 143.088L216.382 214.615V286.178L401.849 178.852L340.015 143.088Z" fill="#1B1925"/>
  <path d="M216.382 71.563L278.217 107.326L216.382 143.09V71.563Z" fill="#1B1925"/>
  </g>
  </g>
  </svg>
  