<svg width="530" height="108" viewBox="0 0 530 108" fill="none" xmlns="http://www.w3.org/2000/svg">
   <g clip-path="url(#clip0_5887_6758)">
   <mask id="mask0_5887_6758" style="mask-type:luminance" maskUnits="userSpaceOnUse" x="0" y="0" width="530" height="108">
   <path d="M529.267 0H0V107.317H529.267V0Z" fill="white"/>
   </mask>
   <g mask="url(#mask0_5887_6758)">
   <path d="M179.469 19.2299V87.3358H169.744V56.1968H146.416V87.3358H136.709V19.2299H146.416V46.4685H169.735V19.2299H179.469Z" fill="#EAE6F6"/>
   <path d="M237.763 64.9565V87.3358H228.047V71.5716H204.73V87.3358H195.014V64.9565L211.49 19.2299H221.251L237.763 64.9565ZM206.474 61.8433H226.303L216.488 34.6046H216.289L206.474 61.8433Z" fill="#EAE6F6"/>
   <path d="M280.034 53.2828L296.068 87.3358H285.376L274.693 64.6668L264.001 87.3358H253.309L269.333 53.2828L253.309 19.2299H264.001L274.693 41.8532L285.376 19.2299H296.068L280.034 53.2828Z" fill="#EAE6F6"/>
   <path d="M354.374 64.9565V87.3358H344.648V71.5716H321.329V87.3358H311.613V64.9565L328.135 19.2299H337.85L354.374 64.9565ZM323.082 61.8433H342.904L333.088 34.6046H332.889L323.082 61.8433Z" fill="#EAE6F6"/>
   <path d="M402.951 42.0977V36.7406C402.965 35.7151 402.774 34.6969 402.388 33.7465C402.002 32.7964 401.429 31.9331 400.705 31.2077C399.98 30.4824 399.118 29.9096 398.169 29.5233C397.22 29.1369 396.204 28.9447 395.178 28.9581H387.407C386.384 28.9533 385.372 29.1514 384.426 29.5408C383.48 29.9302 382.622 30.5032 381.901 31.2269C381.176 31.9505 380.606 32.8104 380.217 33.7569C379.828 34.7033 379.63 35.7174 379.634 36.7406V69.7258C379.64 71.7876 380.462 73.7629 381.917 75.2207C383.373 76.6789 385.348 77.5009 387.407 77.5083H395.178C397.237 77.5009 399.212 76.6789 400.668 75.2207C402.123 73.7629 402.945 71.7876 402.951 69.7258V60.3865H388.373V50.6767H412.667V69.7258C412.674 74.3813 410.839 78.8494 407.559 82.1507C404.28 85.4521 399.829 87.3167 395.178 87.3358H387.407C382.762 87.2999 378.319 85.4299 375.046 82.1323C371.769 78.8346 369.928 74.376 369.918 69.7258V36.7406C369.915 34.4403 370.367 32.1623 371.243 30.0368C372.121 27.9112 373.409 25.9799 375.036 24.3535C376.659 22.727 378.587 21.4372 380.71 20.5581C382.833 19.6789 385.11 19.2276 387.407 19.23H395.178C397.478 19.2205 399.755 19.6668 401.882 20.5434C404.008 21.42 405.94 22.7095 407.566 24.3374C409.193 25.9653 410.48 27.8995 411.356 30.0283C412.231 32.1571 412.677 34.4383 412.667 36.7406V42.0977H402.951Z" fill="#EAE6F6"/>
   <path d="M445.7 87.3358C441.059 87.2999 436.615 85.4299 433.339 82.1323C430.066 78.8346 428.221 74.376 428.214 69.7258V36.7406C428.211 34.4407 428.664 32.1632 429.542 30.0382C430.421 27.9132 431.709 25.9824 433.332 24.3561C434.959 22.7298 436.887 21.4401 439.006 20.5605C441.129 19.6809 443.406 19.2288 445.7 19.23H453.484C455.781 19.2205 458.062 19.6668 460.188 20.5434C462.314 21.42 464.246 22.7095 465.873 24.3374C467.496 25.9653 468.784 27.8995 469.659 30.0283C470.537 32.1571 470.98 34.4383 470.973 36.7406V69.7258C470.98 74.3813 469.142 78.8494 465.862 82.1507C462.586 85.4521 458.132 87.3167 453.484 87.3358H445.7ZM461.255 69.7258V36.7406C461.268 35.7151 461.077 34.6969 460.691 33.7465C460.305 32.7964 459.735 31.9331 459.011 31.2077C458.287 30.4824 457.421 29.9096 456.472 29.5233C455.523 29.1369 454.507 28.9447 453.484 28.9581H445.7C444.681 28.9533 443.668 29.1514 442.722 29.5408C441.777 29.9302 440.918 30.5032 440.194 31.2269C439.473 31.9505 438.899 32.8104 438.51 33.7569C438.121 34.7033 437.923 35.7174 437.93 36.7406V69.7258C437.937 71.7876 438.758 73.7629 440.214 75.2207C441.669 76.6789 443.641 77.5009 445.7 77.5083H453.484C455.543 77.5009 457.515 76.6789 458.971 75.2207C460.426 73.7629 461.248 71.7876 461.255 69.7258Z" fill="#EAE6F6"/>
   <path d="M529.267 19.2299V87.3358H515.168L496.19 35.5732V87.3358H486.518V19.2299H500.606L519.588 70.9924V19.2299H529.267Z" fill="#EAE6F6"/>
   <path d="M77.3476 71.5445L92.8207 80.4853L46.4102 107.317L0 80.4853V26.8315L46.4102 0V17.8907L15.4731 35.7724V71.5445L46.4102 89.4262L77.3476 71.5445Z" fill="#A069FF"/>
   <path d="M85.0839 35.7721L54.1465 53.6538V71.5445L100.557 44.7129L85.0839 35.7721Z" fill="#EAE6F6"/>
   <path d="M54.1465 17.8907L69.6199 26.8315L54.1465 35.7724V17.8907Z" fill="#EAE6F6"/>
   </g>
   </g>
   <defs>
   <clipPath id="clip0_5887_6758">
   <rect width="529.267" height="107.317" fill="white"/>
   </clipPath>
   </defs>
   </svg>
   