<?xml version="1.0" encoding="UTF-8" standalone="no"?>
<!-- Created with Inkscape (http://www.inkscape.org/) -->

<svg
   width="140.03514mm"
   height="28.394257mm"
   viewBox="0 0 140.03514 28.394257"
   version="1.1"
   id="svg5"
   inkscape:version="1.3.2 (091e20ef0f, 2023-11-25, custom)"
   sodipodi:docname="logo.svg"
   xmlns:inkscape="http://www.inkscape.org/namespaces/inkscape"
   xmlns:sodipodi="http://sodipodi.sourceforge.net/DTD/sodipodi-0.dtd"
   xmlns="http://www.w3.org/2000/svg"
   xmlns:svg="http://www.w3.org/2000/svg">
  <sodipodi:namedview
     id="namedview7"
     pagecolor="#ffffff"
     bordercolor="#666666"
     borderopacity="1.0"
     inkscape:pageshadow="2"
     inkscape:pageopacity="0.0"
     inkscape:pagecheckerboard="0"
     inkscape:document-units="mm"
     showgrid="false"
     inkscape:zoom="0.64765011"
     inkscape:cx="269.43561"
     inkscape:cy="94.958681"
     inkscape:window-width="1916"
     inkscape:window-height="1173"
     inkscape:window-x="0"
     inkscape:window-y="0"
     inkscape:window-maximized="1"
     inkscape:current-layer="layer1"
     inkscape:showpageshadow="2"
     inkscape:deskcolor="#d1d1d1" />
  <defs
     id="defs2">
    <clipPath
       id="clip0_4_2215">
      <rect
         width="157.81799"
         height="32"
         fill="#ffffff"
         id="rect31"
         x="0"
         y="0" />
    </clipPath>
  </defs>
  <g
     inkscape:label="Layer 1"
     inkscape:groupmode="layer"
     id="layer1"
     transform="translate(-34.050533,-123.57393)">
    <g
       clip-path="url(#clip0_4_2215)"
       id="g29"
       transform="matrix(0.88732052,0,0,0.88732052,34.050533,123.57393)"
       inkscape:export-filename="/home/madeta/Pictures/haxagon/logo_full.png"
       inkscape:export-xdpi="300"
       inkscape:export-ydpi="300">
      <path
         d="M 53.5143,5.73401 V 26.042 H 50.6145 V 16.7569 H 43.6587 V 26.042 H 40.7643 V 5.73401 h 2.8944 v 8.12209 h 6.9531 V 5.73401 Z"
         fill="#ffffff"
         id="path9" />
      <path
         d="m 70.8969,19.3689 v 6.6731 h -2.8971 v -4.7006 h -6.953 V 26.042 H 58.1497 V 19.3689 L 63.0626,5.73401 h 2.9106 z m -9.33,-0.9283 h 5.9128 l -2.9268,-8.1221 h -0.0593 z"
         fill="#ffffff"
         id="path11" />
      <path
         d="m 83.5013,15.888 4.7809,10.154 H 85.094 L 81.9086,19.2825 78.7204,26.042 H 75.5322 L 80.3104,15.888 75.5322,5.73401 h 3.1882 l 3.1882,6.74589 3.1854,-6.74589 h 3.1882 z"
         fill="#ffffff"
         id="path13" />
      <path
         d="m 105.668,19.3689 v 6.6731 h -2.9 V 21.3414 H 95.8147 V 26.042 H 92.9176 V 19.3689 L 97.844,5.73401 h 2.897 z m -9.3305,-0.9283 h 5.9105 l -2.9271,-8.1221 h -0.0593 z"
         fill="#ffffff"
         id="path15" />
      <path
         d="M 120.153,12.5528 V 10.9554 C 120.157,10.6496 120.1,10.346 119.985,10.0626 119.87,9.7793 119.699,9.52189 119.483,9.3056 119.267,9.08932 119.01,8.91853 118.727,8.80332 118.444,8.68811 118.141,8.63081 117.835,8.6348 h -2.317 c -0.305,-0.00143 -0.607,0.05762 -0.889,0.17374 -0.282,0.11611 -0.538,0.28699 -0.753,0.50276 -0.216,0.21578 -0.386,0.47217 -0.502,0.7544 -0.116,0.2822 -0.175,0.5846 -0.174,0.8897 v 9.8356 c 0.002,0.6148 0.247,1.2038 0.681,1.6385 0.434,0.4348 1.023,0.6799 1.637,0.6821 h 2.317 c 0.614,-0.0022 1.203,-0.2473 1.637,-0.6821 0.434,-0.4347 0.679,-1.0237 0.681,-1.6385 v -2.7848 h -4.347 v -2.8953 h 7.244 v 5.6801 c 0.002,1.3882 -0.545,2.7205 -1.523,3.7049 -0.978,0.9844 -2.305,1.5404 -3.692,1.5461 h -2.317 c -1.385,-0.0107 -2.71,-0.5683 -3.686,-1.5516 -0.977,-0.9833 -1.526,-2.3128 -1.529,-3.6994 v -9.8356 c -10e-4,-0.6859 0.134,-1.36516 0.395,-1.99896 0.262,-0.6338 0.646,-1.20968 1.131,-1.69467 0.484,-0.48499 1.059,-0.86957 1.692,-1.13171 0.633,-0.26215 1.312,-0.39672 1.997,-0.39601 h 2.317 c 0.686,-0.00285 1.365,0.13025 1.999,0.39164 0.634,0.26138 1.21,0.64588 1.695,1.13129 0.485,0.48542 0.869,1.06215 1.13,1.69692 0.261,0.63478 0.394,1.315 0.391,2.0015 v 1.5974 z"
         fill="#ffffff"
         id="path17" />
      <path
         d="m 132.9,26.042 c -1.384,-0.0107 -2.709,-0.5683 -3.686,-1.5516 -0.976,-0.9833 -1.526,-2.3128 -1.528,-3.6994 v -9.8356 c -0.001,-0.6858 0.134,-1.3649 0.396,-1.99854 0.262,-0.63364 0.646,-1.20938 1.13,-1.6943 0.485,-0.48492 1.06,-0.86951 1.692,-1.13178 0.633,-0.26227 1.312,-0.39708 1.996,-0.39673 h 2.321 c 0.685,-0.00285 1.365,0.13025 1.999,0.39164 0.634,0.26138 1.21,0.64588 1.695,1.13129 0.484,0.48542 0.868,1.06215 1.129,1.69692 0.262,0.63478 0.394,1.315 0.392,2.0015 v 9.8356 c 0.002,1.3882 -0.546,2.7205 -1.524,3.7049 -0.977,0.9844 -2.305,1.5404 -3.691,1.5461 z m 4.638,-5.251 v -9.8356 c 0.004,-0.3058 -0.053,-0.6094 -0.168,-0.8928 -0.115,-0.2833 -0.285,-0.54071 -0.501,-0.757 -0.216,-0.21628 -0.474,-0.38707 -0.757,-0.50228 -0.283,-0.11521 -0.586,-0.17251 -0.891,-0.16852 H 132.9 c -0.304,-0.00143 -0.606,0.05762 -0.888,0.17374 -0.282,0.11611 -0.538,0.28699 -0.754,0.50276 -0.215,0.21578 -0.386,0.47217 -0.502,0.7544 -0.116,0.2822 -0.175,0.5846 -0.173,0.8897 v 9.8356 c 0.002,0.6148 0.247,1.2038 0.681,1.6385 0.434,0.4348 1.022,0.6799 1.636,0.6821 h 2.321 c 0.614,-0.0022 1.202,-0.2473 1.636,-0.6821 0.434,-0.4347 0.679,-1.0237 0.681,-1.6385 z"
         fill="#ffffff"
         id="path19" />
      <path
         d="M 157.818,5.73401 V 26.042 h -4.204 L 147.955,10.6073 V 26.042 h -2.884 V 5.73401 h 4.201 l 5.66,15.43469 V 5.73401 Z"
         fill="#ffffff"
         id="path21" />
      <path
         d="m 23.0637,21.3333 4.6138,2.666 L 13.8387,32 0,23.9993 V 8.00068 L 13.8387,0 V 5.33468 L 4.61381,10.6667 v 10.6666 l 9.22489,5.332 z"
         fill="#9228e6"
         id="path23" />
      <path
         d="m 25.3706,10.6666 -9.225,5.332 v 5.3347 l 13.8388,-8.0007 z"
         fill="#ffffff"
         id="path25" />
      <path
         d="m 16.1456,5.33472 4.6139,2.66599 -4.6139,2.66599 z"
         fill="#ffffff"
         id="path27" />
    </g>
  </g>
</svg>
